<svg xmlns="http://www.w3.org/2000/svg" width="17.912" height="13.237" viewBox="0 0 17.912 13.237">
  <g id="repeat" transform="translate(0.25 0.284)">
    <g id="Group_11468" data-name="Group 11468" transform="translate(0 0)">
      <path id="Path_13797" data-name="Path 13797" d="M15.5,58.553H1.912A1.822,1.822,0,0,1,0,56.837V49.543a1.822,1.822,0,0,1,1.912-1.716H5.856a.395.395,0,1,1,0,.785H1.912a.991.991,0,0,0-1.041.934v7.291a.991.991,0,0,0,1.041.934H15.5a.991.991,0,0,0,1.041-.934V49.543a.991.991,0,0,0-1.041-.934H9.758l1.46,1.311a.361.361,0,0,1,0,.552.474.474,0,0,1-.618,0L8.4,48.494a.361.361,0,0,1,0-.552l2.2-1.977a.469.469,0,0,1,.615,0,.361.361,0,0,1,0,.552l-1.46,1.311H15.5a1.822,1.822,0,0,1,1.912,1.716v7.294A1.824,1.824,0,0,1,15.5,58.553Z" transform="translate(0 -45.85)" fill="#fff" stroke="#fff" stroke-width="0.5"/>
    </g>
  </g>
</svg>
