<svg xmlns="http://www.w3.org/2000/svg" width="18.297" height="14.371" viewBox="0 0 18.297 14.371">
  <g id="shuffle_1_" data-name="shuffle (1)" transform="translate(0 -51.197)">
    <g id="Group_11435" data-name="Group 11435" transform="translate(0 51.197)">
      <g id="Group_11434" data-name="Group 11434" transform="translate(0 0)">
        <path id="Path_13787" data-name="Path 13787" d="M18.106,54.028h0L15.49,51.383a.648.648,0,0,0-.924.016.667.667,0,0,0,0,.919l1.5,1.517h-3.65a4.607,4.607,0,0,0-4.574,4.628,3.29,3.29,0,0,1-3.267,3.306H.653a.661.661,0,0,0,0,1.322H4.574a4.607,4.607,0,0,0,4.574-4.628,3.29,3.29,0,0,1,3.267-3.306h3.65l-1.5,1.516a.667.667,0,0,0-.016.935.648.648,0,0,0,.924.016l.016-.016L18.1,54.963A.667.667,0,0,0,18.106,54.028Z" transform="translate(0 -51.197)" fill="#fff"/>
      </g>
    </g>
    <g id="Group_11437" data-name="Group 11437" transform="translate(9.653 59.391)">
      <g id="Group_11436" data-name="Group 11436" transform="translate(0 0)">
        <path id="Path_13788" data-name="Path 13788" d="M247.5,258.643h0l-2.471-2.471a.618.618,0,0,0-.873.873l1.417,1.417h-3.45a3.084,3.084,0,0,1-2.059-.786.618.618,0,0,0-.824.92,4.317,4.317,0,0,0,2.883,1.1h3.45l-1.416,1.416a.618.618,0,0,0,.858.889l.015-.015,2.471-2.471A.618.618,0,0,0,247.5,258.643Z" transform="translate(-239.036 -255.998)" fill="#fff"/>
      </g>
    </g>
    <g id="Group_11439" data-name="Group 11439" transform="translate(0 53.83)">
      <g id="Group_11438" data-name="Group 11438" transform="translate(0 0)">
        <path id="Path_13789" data-name="Path 13789" d="M7.207,120.373a4.317,4.317,0,0,0-2.883-1.1H.618a.618.618,0,1,0,0,1.235H4.324a3.084,3.084,0,0,1,2.059.786.618.618,0,0,0,.824-.92Z" transform="translate(0 -119.272)" fill="#fff"/>
      </g>
    </g>
  </g>
</svg>
