<svg xmlns="http://www.w3.org/2000/svg" xmlns:xlink="http://www.w3.org/1999/xlink" width="782.059" height="695.29" viewBox="0 0 782.059 695.29">
  <defs>
    <clipPath id="clip-path">
      <path id="Path_1099" data-name="Path 1099" d="M0,0,635.513,47.586,665.12,411.5,29.607,363.919Z" fill="#0a0a0a"/>
    </clipPath>
    <clipPath id="clip-path-2">
      <path id="Path_60" data-name="Path 60" d="M247.39,684.571,0,116.661,150.808,0,397.829,489.886Z" fill="none"/>
    </clipPath>
    <clipPath id="clip-path-3">
      <path id="Path_194" data-name="Path 194" d="M144.757,287.078l.851,179.647L49.469,591.138,2.287,482.825,0,0Z" fill="none"/>
    </clipPath>
    <clipPath id="clip-path-4">
      <path id="Path_982" data-name="Path 982" d="M.334,3.172,669.916,0c8.15-.039,14.743,5.543,14.726,12.467L684.3,151.293,19.723,154.442C8.807,154.493-.023,147.018,0,137.745Z" transform="translate(0 684.642) rotate(-90)" fill="none"/>
    </clipPath>
    <clipPath id="clip-path-5">
      <path id="Path_1094" data-name="Path 1094" d="M.338,2.478,523.284,0c9.236-.044,16.707,6.281,16.687,14.127l-.34,137.156L17.776,153.756C7.938,153.8-.021,147.065,0,138.707Z" transform="translate(0 539.971) rotate(-90)" fill="none"/>
    </clipPath>
  </defs>
  <g id="Mask_Group_1" data-name="Mask Group 1" transform="translate(0 342.562) rotate(-31)" clip-path="url(#clip-path)">
    <g id="Group_16" data-name="Group 16" transform="matrix(0.616, -0.788, 0.788, 0.616, -81.599, 150.493)">
      <g id="Group_6" data-name="Group 6" transform="translate(0.485 0.345)">
        <g id="Group_5" data-name="Group 5">
          <g id="Group_4" data-name="Group 4" clip-path="url(#clip-path-2)">
            <path id="Path_3" data-name="Path 3" d="M50.329,254.586,0,184.655,207.335,0l1.208,254.978Z" transform="translate(190.21 429.968)" fill="#524cdf"/>
            <path id="Path_4" data-name="Path 4" d="M5.33,196.756,0,189.351,212.607,0l.057,12.1Z" transform="translate(184.881 417.868)" fill="#524cdf"/>
            <path id="Path_5" data-name="Path 5" d="M5.33,201.451,0,194.046,217.879,0l.057,12.1Z" transform="translate(179.551 405.767)" fill="#534cdf"/>
            <path id="Path_6" data-name="Path 6" d="M5.329,206.147,0,198.742,223.151,0l.057,12.1Z" transform="translate(174.222 393.667)" fill="#534dde"/>
            <path id="Path_7" data-name="Path 7" d="M5.33,210.842,0,203.437,228.424,0l.057,12.1Z" transform="translate(168.892 381.566)" fill="#544dde"/>
            <path id="Path_8" data-name="Path 8" d="M5.329,215.538,0,208.133,233.7,0l.057,12.1Z" transform="translate(163.563 369.465)" fill="#554dde"/>
            <path id="Path_9" data-name="Path 9" d="M5.33,220.233,0,212.828,238.968,0l.057,12.1Z" transform="translate(158.234 357.365)" fill="#554ede"/>
            <path id="Path_10" data-name="Path 10" d="M5.33,224.929,0,217.524,244.24,0l.057,12.1Z" transform="translate(152.903 345.264)" fill="#564edd"/>
            <path id="Path_11" data-name="Path 11" d="M5.33,229.624,0,222.219,249.513,0l.057,12.1Z" transform="translate(147.574 333.164)" fill="#574edd"/>
            <path id="Path_12" data-name="Path 12" d="M5.33,229.81,0,222.4,249.721,0l5.119,7.113,0,.478Z" transform="translate(142.244 325.573)" fill="#584fdc"/>
            <path id="Path_13" data-name="Path 13" d="M255.051,7.4,249.721,0,0,222.4l5.33,7.405Z" transform="translate(136.915 318.168)" fill="#594fdc"/>
            <path id="Path_14" data-name="Path 14" d="M255.05,7.405,249.721,0,0,222.4l5.329,7.4Z" transform="translate(131.586 310.763)" fill="#5a50dc"/>
            <path id="Path_15" data-name="Path 15" d="M255.05,7.405,249.72,0,0,222.4l5.33,7.405Z" transform="translate(126.256 303.358)" fill="#5b50db"/>
            <path id="Path_16" data-name="Path 16" d="M255.05,7.405,249.721,0,0,222.4l5.33,7.405Z" transform="translate(120.926 295.953)" fill="#5b50db"/>
            <path id="Path_17" data-name="Path 17" d="M255.05,7.405,249.719,0,0,222.4l5.329,7.405Z" transform="translate(115.597 288.548)" fill="#5c51da"/>
            <path id="Path_18" data-name="Path 18" d="M255.05,7.405,249.721,0,0,222.4l5.33,7.4Z" transform="translate(110.267 281.143)" fill="#5d51da"/>
            <path id="Path_19" data-name="Path 19" d="M255.05,7.405,249.72,0,0,222.4l5.329,7.405Z" transform="translate(104.938 273.738)" fill="#5e52da"/>
            <path id="Path_20" data-name="Path 20" d="M255.051,7.405,249.721,0,0,222.4l5.331,7.4Z" transform="translate(99.608 266.333)" fill="#5f52d9"/>
            <path id="Path_21" data-name="Path 21" d="M255.05,7.405,249.72,0,0,222.4l5.329,7.405Z" transform="translate(94.279 258.928)" fill="#6053d9"/>
            <path id="Path_22" data-name="Path 22" d="M255.05,7.405,249.721,0,0,222.4l5.33,7.405Z" transform="translate(88.949 251.523)" fill="#6153d8"/>
            <path id="Path_23" data-name="Path 23" d="M255.05,7.405,249.721,0,0,222.4l5.33,7.405Z" transform="translate(83.62 244.117)" fill="#6254d8"/>
            <path id="Path_24" data-name="Path 24" d="M255.05,7.405,249.72,0,0,222.4l5.329,7.405Z" transform="translate(78.29 236.712)" fill="#6354d7"/>
            <path id="Path_25" data-name="Path 25" d="M255.051,7.405,249.721,0,0,222.4l5.331,7.4Z" transform="translate(72.961 229.307)" fill="#6455d7"/>
            <path id="Path_26" data-name="Path 26" d="M255.05,7.4,249.72,0,0,222.4l5.329,7.405Z" transform="translate(67.631 221.902)" fill="#6555d7"/>
            <path id="Path_27" data-name="Path 27" d="M255.05,7.405,249.721,0,0,222.4l5.33,7.405Z" transform="translate(62.302 214.497)" fill="#6656d6"/>
            <path id="Path_28" data-name="Path 28" d="M255.05,7.405,249.72,0,0,222.4l5.33,7.4Z" transform="translate(56.972 207.092)" fill="#6756d6"/>
            <path id="Path_29" data-name="Path 29" d="M255.05,7.405,249.721,0,0,222.4l5.33,7.405Z" transform="translate(51.643 199.687)" fill="#6857d5"/>
            <path id="Path_30" data-name="Path 30" d="M255.051,7.405,249.721,0,0,222.4l5.33,7.4Z" transform="translate(46.313 192.282)" fill="#6957d5"/>
            <path id="Path_31" data-name="Path 31" d="M255.051,7.405,249.721,0,0,222.4l5.329,7.405Z" transform="translate(40.983 184.877)" fill="#6a58d4"/>
            <path id="Path_32" data-name="Path 32" d="M255.05,7.405,249.721,0,0,222.4l5.329,7.405Z" transform="translate(35.654 177.472)" fill="#6c58d4"/>
            <path id="Path_33" data-name="Path 33" d="M255.05,7.405,249.72,0,0,222.4l5.33,7.405Z" transform="translate(30.324 170.067)" fill="#6d59d3"/>
            <path id="Path_34" data-name="Path 34" d="M255.05,7.405,249.721,0,0,222.4l5.33,7.4Z" transform="translate(24.995 162.662)" fill="#6e59d3"/>
            <path id="Path_35" data-name="Path 35" d="M255.05,7.405,249.72,0,0,222.4l5.329,7.405Z" transform="translate(19.666 155.257)" fill="#6f5ad2"/>
            <path id="Path_36" data-name="Path 36" d="M255.051,7.405,249.721,0,0,222.4l5.331,7.4Z" transform="translate(14.336 147.851)" fill="#705ad2"/>
            <path id="Path_37" data-name="Path 37" d="M255.05,7.405,249.72,0,0,222.4l5.329,7.405Z" transform="translate(9.007 140.446)" fill="#715bd2"/>
            <path id="Path_38" data-name="Path 38" d="M255.051,7.405,249.721,0,0,222.4l5.331,7.405Z" transform="translate(3.677 133.041)" fill="#725bd1"/>
            <path id="Path_39" data-name="Path 39" d="M2.591,229.809.03,226.249,0,219.967,246.983,0l5.33,7.405Z" transform="translate(1.085 125.636)" fill="#735cd1"/>
            <path id="Path_40" data-name="Path 40" d="M0,215.271,241.711,0l5.329,7.405L.057,227.372Z" transform="translate(1.027 118.231)" fill="#745cd0"/>
            <path id="Path_41" data-name="Path 41" d="M0,210.576,236.439,0l5.33,7.405L.057,222.676Z" transform="translate(0.97 110.826)" fill="#755dd0"/>
            <path id="Path_42" data-name="Path 42" d="M0,205.88,231.167,0l5.33,7.405L.057,217.981Z" transform="translate(0.913 103.421)" fill="#765dcf"/>
            <path id="Path_43" data-name="Path 43" d="M0,201.185,225.894,0l5.33,7.405L.057,213.285Z" transform="translate(0.855 96.016)" fill="#785ecf"/>
            <path id="Path_44" data-name="Path 44" d="M0,196.489,220.622,0l5.33,7.405L.057,208.59Z" transform="translate(0.798 88.611)" fill="#795ece"/>
            <path id="Path_45" data-name="Path 45" d="M0,191.794,215.35,0l5.329,7.405L.057,203.894Z" transform="translate(0.741 81.206)" fill="#7a5fce"/>
            <path id="Path_46" data-name="Path 46" d="M0,187.1,210.077,0l5.331,7.405L.057,199.2Z" transform="translate(0.683 73.801)" fill="#7b5fcd"/>
            <path id="Path_47" data-name="Path 47" d="M0,182.4,204.806,0l5.329,7.405L.057,194.5Z" transform="translate(0.626 66.396)" fill="#7c60cd"/>
            <path id="Path_48" data-name="Path 48" d="M0,177.708,199.533,0l5.33,7.405L.057,189.808Z" transform="translate(0.569 58.991)" fill="#7d60cc"/>
            <path id="Path_49" data-name="Path 49" d="M0,173.012,194.261,0l5.33,7.405L.057,185.113Z" transform="translate(0.511 51.585)" fill="#7e61cc"/>
            <path id="Path_50" data-name="Path 50" d="M0,168.317,188.989,0l5.33,7.405L.057,180.417Z" transform="translate(0.454 44.18)" fill="#8062cb"/>
            <path id="Path_51" data-name="Path 51" d="M0,163.621,183.716,0l5.33,7.4L.057,175.721Z" transform="translate(0.397 36.775)" fill="#8162cb"/>
            <path id="Path_52" data-name="Path 52" d="M0,158.925,178.445,0l5.329,7.405L.057,171.026Z" transform="translate(0.339 29.37)" fill="#8263ca"/>
            <path id="Path_53" data-name="Path 53" d="M0,154.23,173.172,0l5.33,7.405L.057,166.33Z" transform="translate(0.282 21.965)" fill="#8363ca"/>
            <path id="Path_54" data-name="Path 54" d="M0,149.534,167.9,0l5.33,7.405L.057,161.635Z" transform="translate(0.225 14.56)" fill="#8464c9"/>
            <path id="Path_55" data-name="Path 55" d="M0,144.839,162.628,0l5.33,7.405L.057,156.939Z" transform="translate(0.167 7.155)" fill="#8564c9"/>
            <path id="Path_56" data-name="Path 56" d="M0,139.878,157.057,0h.491l5.137,7.138L.057,151.978Z" transform="translate(0.11 0.016)" fill="#8765c8"/>
            <path id="Path_57" data-name="Path 57" d="M0,127.811,143.508,0l13.606.034L.057,139.911Z" transform="translate(0.053 -0.018)" fill="#8865c8"/>
            <path id="Path_58" data-name="Path 58" d="M0,115.744,129.96,0l13.606.034L.057,127.845Z" transform="translate(-0.005 -0.052)" fill="#8966c7"/>
            <path id="Path_59" data-name="Path 59" d="M130.509.324.55,116.068,0,0Z" transform="translate(-0.554 -0.376)" fill="#8966c7"/>
          </g>
        </g>
      </g>
      <g id="Group_9" data-name="Group 9" transform="translate(198.406 93.778)" opacity="0.75" style="mix-blend-mode: multiply;isolation: isolate">
        <g id="Group_8" data-name="Group 8">
          <g id="Group_7" data-name="Group 7" clip-path="url(#clip-path-3)">
            <path id="Path_61" data-name="Path 61" d="M0,52.172,72.554,0,72.8,52.353Z" transform="translate(73.396 539.026)" fill="#6f4dde"/>
            <path id="Path_62" data-name="Path 62" d="M0,55.74,77.516,0l.017,3.58L4.979,55.752Z" transform="translate(68.417 535.445)" fill="#6f4dde"/>
            <path id="Path_63" data-name="Path 63" d="M0,59.308,82.478,0,82.5,3.58,4.979,59.32Z" transform="translate(63.438 531.865)" fill="#6f4ede"/>
            <path id="Path_64" data-name="Path 64" d="M0,62.876,87.44,0l.017,3.58L4.979,62.888Z" transform="translate(58.459 528.284)" fill="#704fdf"/>
            <path id="Path_65" data-name="Path 65" d="M0,66.444,92.4,0l.017,3.58L4.979,66.457Z" transform="translate(53.48 524.704)" fill="#7050df"/>
            <path id="Path_66" data-name="Path 66" d="M0,70.012,97.364,0l.017,3.58L4.979,70.024Z" transform="translate(48.501 521.124)" fill="#7051df"/>
            <path id="Path_67" data-name="Path 67" d="M0,73.58,102.325,0l.017,3.58L4.979,73.593Z" transform="translate(43.522 517.543)" fill="#7152df"/>
            <path id="Path_68" data-name="Path 68" d="M1.35,77.159,0,74.844,104.083,0l.017,3.58L1.775,77.161Z" transform="translate(41.748 513.963)" fill="#7153e0"/>
            <path id="Path_69" data-name="Path 69" d="M1.476,78.424,0,75.893,105.543,0l.017,3.58Z" transform="translate(40.272 510.382)" fill="#7154e0"/>
            <path id="Path_70" data-name="Path 70" d="M1.476,79.474,0,76.942,107,0l.017,3.58Z" transform="translate(38.796 506.802)" fill="#7155e0"/>
            <path id="Path_71" data-name="Path 71" d="M1.476,80.523,0,77.991,108.461,0l.017,3.58Z" transform="translate(37.32 503.221)" fill="#7256e0"/>
            <path id="Path_72" data-name="Path 72" d="M1.476,81.572,0,79.04,109.919,0l.017,3.58Z" transform="translate(35.844 499.641)" fill="#7257e1"/>
            <path id="Path_73" data-name="Path 73" d="M1.476,82.621,0,80.09,111.378,0l.017,3.58Z" transform="translate(34.368 496.061)" fill="#7258e1"/>
            <path id="Path_74" data-name="Path 74" d="M1.476,83.67,0,81.139,112.837,0l.017,3.58Z" transform="translate(32.892 492.48)" fill="#7359e1"/>
            <path id="Path_75" data-name="Path 75" d="M1.476,84.719,0,82.188,114.3,0l.017,3.58Z" transform="translate(31.417 488.9)" fill="#735ae1"/>
            <path id="Path_76" data-name="Path 76" d="M1.476,85.768,0,83.237,115.755,0l.017,3.58Z" transform="translate(29.941 485.32)" fill="#735be2"/>
            <path id="Path_77" data-name="Path 77" d="M1.476,86.817,0,84.286,117.214,0l.017,3.58Z" transform="translate(28.465 481.739)" fill="#745ce2"/>
            <path id="Path_78" data-name="Path 78" d="M1.476,87.866,0,85.335,118.673,0l.017,3.58Z" transform="translate(26.989 478.159)" fill="#745de2"/>
            <path id="Path_79" data-name="Path 79" d="M1.476,88.915,0,86.384,120.132,0l.017,3.58Z" transform="translate(25.513 474.578)" fill="#745ee2"/>
            <path id="Path_80" data-name="Path 80" d="M1.476,89.964,0,87.433,121.59,0l.017,3.58Z" transform="translate(24.037 470.998)" fill="#755fe3"/>
            <path id="Path_81" data-name="Path 81" d="M1.475,91.013,0,88.482,123.049,0l.017,3.58Z" transform="translate(22.561 467.418)" fill="#7560e3"/>
            <path id="Path_82" data-name="Path 82" d="M1.477,92.063,0,89.531,124.509,0l.017,3.58Z" transform="translate(21.085 463.837)" fill="#7561e3"/>
            <path id="Path_83" data-name="Path 83" d="M1.476,93.112,0,90.58,125.967,0l.017,3.58Z" transform="translate(19.61 460.257)" fill="#7562e3"/>
            <path id="Path_84" data-name="Path 84" d="M1.476,94.161,0,91.629,127.427,0l.017,3.58Z" transform="translate(18.133 456.676)" fill="#7663e4"/>
            <path id="Path_85" data-name="Path 85" d="M1.475,95.21,0,92.678,128.885,0l.017,3.58Z" transform="translate(16.658 453.096)" fill="#7664e4"/>
            <path id="Path_86" data-name="Path 86" d="M1.476,96.259,0,93.728,130.344,0l.017,3.58Z" transform="translate(15.182 449.516)" fill="#7665e4"/>
            <path id="Path_87" data-name="Path 87" d="M1.477,97.308,0,94.777,131.8,0l.017,3.58Z" transform="translate(13.706 445.935)" fill="#7766e4"/>
            <path id="Path_88" data-name="Path 88" d="M1.475,98.357,0,95.826,133.262,0l.017,3.58Z" transform="translate(12.23 442.355)" fill="#7767e5"/>
            <path id="Path_89" data-name="Path 89" d="M1.476,99.406,0,96.875,134.721,0l.017,3.58Z" transform="translate(10.754 438.774)" fill="#7768e5"/>
            <path id="Path_90" data-name="Path 90" d="M1.476,100.455,0,97.924,136.18,0l.017,3.58Z" transform="translate(9.278 435.194)" fill="#7869e5"/>
            <path id="Path_91" data-name="Path 91" d="M1.476,101.5,0,98.973,137.639,0l.017,3.58Z" transform="translate(7.802 431.613)" fill="#786ae5"/>
            <path id="Path_92" data-name="Path 92" d="M1.477,102.553,0,100.022,139.1,0l.017,3.58Z" transform="translate(6.326 428.033)" fill="#786be6"/>
            <path id="Path_93" data-name="Path 93" d="M1.476,103.6,0,101.071,140.557,0l.017,3.58Z" transform="translate(4.85 424.453)" fill="#796ce6"/>
            <path id="Path_94" data-name="Path 94" d="M1.476,104.652,0,102.12,142.016,0l.017,3.58Z" transform="translate(3.374 420.872)" fill="#796de6"/>
            <path id="Path_95" data-name="Path 95" d="M.911,105.7l-.9-1.551L0,102.763,142.91,0l.017,3.58Z" transform="translate(2.464 417.292)" fill="#796ee6"/>
            <path id="Path_96" data-name="Path 96" d="M0,102.763,142.91,0l.017,3.58L.017,106.343Z" transform="translate(2.447 413.711)" fill="#796fe7"/>
            <path id="Path_97" data-name="Path 97" d="M0,102.763,142.91,0l.017,3.58L.017,106.343Z" transform="translate(2.43 410.131)" fill="#7a70e7"/>
            <path id="Path_98" data-name="Path 98" d="M0,102.763,142.91,0l.017,3.58L.017,106.343Z" transform="translate(2.413 406.551)" fill="#7a71e7"/>
            <path id="Path_99" data-name="Path 99" d="M0,102.763,142.91,0l.017,3.58L.017,106.344Z" transform="translate(2.396 402.97)" fill="#7a72e7"/>
            <path id="Path_100" data-name="Path 100" d="M0,102.763,142.91,0l.017,3.58L.017,106.344Z" transform="translate(2.379 399.39)" fill="#7b73e8"/>
            <path id="Path_101" data-name="Path 101" d="M0,102.763,142.91,0l.017,3.58L.017,106.344Z" transform="translate(2.362 395.809)" fill="#7b74e8"/>
            <path id="Path_102" data-name="Path 102" d="M0,102.763,142.91,0l.017,3.58L.017,106.343Z" transform="translate(2.345 392.229)" fill="#7b75e8"/>
            <path id="Path_103" data-name="Path 103" d="M0,102.763,142.91,0l.017,3.58L.017,106.343Z" transform="translate(2.328 388.649)" fill="#7c76e8"/>
            <path id="Path_104" data-name="Path 104" d="M0,102.763,142.91,0l.017,3.58L.017,106.343Z" transform="translate(2.311 385.068)" fill="#7c77e9"/>
            <path id="Path_105" data-name="Path 105" d="M0,102.763,142.91,0l.017,3.58L.017,106.344Z" transform="translate(2.294 381.488)" fill="#7c78e9"/>
            <path id="Path_106" data-name="Path 106" d="M0,102.763,142.91,0l.017,3.58L.017,106.344Z" transform="translate(2.277 377.907)" fill="#7d79e9"/>
            <path id="Path_107" data-name="Path 107" d="M0,102.763,142.91,0l.017,3.58L.017,106.344Z" transform="translate(2.26 374.327)" fill="#7d7ae9"/>
            <path id="Path_108" data-name="Path 108" d="M0,102.763,142.91,0l.017,3.58L.017,106.343Z" transform="translate(2.243 370.747)" fill="#7d7bea"/>
            <path id="Path_109" data-name="Path 109" d="M0,102.763,142.91,0l.017,3.58L.017,106.343Z" transform="translate(2.226 367.166)" fill="#7d7cea"/>
            <path id="Path_110" data-name="Path 110" d="M0,102.763,142.91,0l.017,3.58L.017,106.343Z" transform="translate(2.209 363.586)" fill="#7e7dea"/>
            <path id="Path_111" data-name="Path 111" d="M0,102.763,142.91,0l.017,3.58L.017,106.343Z" transform="translate(2.192 360.005)" fill="#7e7eea"/>
            <path id="Path_112" data-name="Path 112" d="M0,102.763,142.91,0l.017,3.58L.017,106.344Z" transform="translate(2.175 356.425)" fill="#7e7feb"/>
            <path id="Path_113" data-name="Path 113" d="M0,102.763,142.91,0l.017,3.58L.017,106.344Z" transform="translate(2.158 352.845)" fill="#7f80eb"/>
            <path id="Path_114" data-name="Path 114" d="M0,102.763,142.91,0l.017,3.58L.017,106.343Z" transform="translate(2.141 349.264)" fill="#7f81eb"/>
            <path id="Path_115" data-name="Path 115" d="M0,102.763,142.91,0l.017,3.58L.017,106.344Z" transform="translate(2.124 345.684)" fill="#7f82eb"/>
            <path id="Path_116" data-name="Path 116" d="M0,102.763,142.91,0l.017,3.58L.017,106.343Z" transform="translate(2.107 342.103)" fill="#8083ec"/>
            <path id="Path_117" data-name="Path 117" d="M0,102.763,142.91,0l.017,3.58L.017,106.343Z" transform="translate(2.09 338.523)" fill="#8084ec"/>
            <path id="Path_118" data-name="Path 118" d="M0,102.763,142.91,0l.017,3.58L.017,106.344Z" transform="translate(2.073 334.943)" fill="#8085ec"/>
            <path id="Path_119" data-name="Path 119" d="M0,102.763,142.91,0l.017,3.58L.017,106.344Z" transform="translate(2.057 331.362)" fill="#8186ec"/>
            <path id="Path_120" data-name="Path 120" d="M0,102.763,142.91,0l.017,3.58L.017,106.344Z" transform="translate(2.04 327.782)" fill="#8187ed"/>
            <path id="Path_121" data-name="Path 121" d="M0,102.763,142.91,0l.017,3.58L.017,106.343Z" transform="translate(2.023 324.201)" fill="#8188ed"/>
            <path id="Path_122" data-name="Path 122" d="M0,102.763,142.91,0l.017,3.58L.017,106.343Z" transform="translate(2.006 320.621)" fill="#8189ed"/>
            <path id="Path_123" data-name="Path 123" d="M0,102.763,142.91,0l.017,3.58L.017,106.343Z" transform="translate(1.989 317.041)" fill="#828aed"/>
            <path id="Path_124" data-name="Path 124" d="M0,102.763,142.91,0l.017,3.58L.017,106.343Z" transform="translate(1.972 313.46)" fill="#828bee"/>
            <path id="Path_125" data-name="Path 125" d="M0,102.763,142.91,0l.017,3.58L.017,106.344Z" transform="translate(1.955 309.88)" fill="#828cee"/>
            <path id="Path_126" data-name="Path 126" d="M0,102.763,142.91,0l.017,3.58L.017,106.343Z" transform="translate(1.938 306.299)" fill="#838dee"/>
            <path id="Path_127" data-name="Path 127" d="M0,102.763,142.91,0l.017,3.58L.017,106.344Z" transform="translate(1.921 302.719)" fill="#838fef"/>
            <path id="Path_128" data-name="Path 128" d="M0,102.763,142.91,0l.017,3.58L.017,106.343Z" transform="translate(1.904 299.139)" fill="#8390ef"/>
            <path id="Path_129" data-name="Path 129" d="M0,102.763,142.91,0l.017,3.58L.017,106.343Z" transform="translate(1.887 295.558)" fill="#8491ef"/>
            <path id="Path_130" data-name="Path 130" d="M0,102.763,142.91,0l.017,3.58L.017,106.343Z" transform="translate(1.87 291.978)" fill="#8492ef"/>
            <path id="Path_131" data-name="Path 131" d="M0,102.763,142.91,0l.017,3.58L.017,106.344Z" transform="translate(1.853 288.397)" fill="#8493f0"/>
            <path id="Path_132" data-name="Path 132" d="M0,102.763,142.91,0l.017,3.58L.017,106.343Z" transform="translate(1.836 284.817)" fill="#8594f0"/>
            <path id="Path_133" data-name="Path 133" d="M0,102.763,142.91,0l.017,3.58L.017,106.343Z" transform="translate(1.819 281.237)" fill="#8595f0"/>
            <path id="Path_134" data-name="Path 134" d="M0,102.763,142.91,0l.017,3.58L.017,106.343Z" transform="translate(1.802 277.656)" fill="#8596f0"/>
            <path id="Path_135" data-name="Path 135" d="M0,102.763,142.91,0l.017,3.58L.017,106.344Z" transform="translate(1.785 274.076)" fill="#8597f1"/>
            <path id="Path_136" data-name="Path 136" d="M0,102.763,142.91,0l.017,3.58L.017,106.344Z" transform="translate(1.768 270.495)" fill="#8698f1"/>
            <path id="Path_137" data-name="Path 137" d="M0,102.763,142.91,0l.017,3.58L.017,106.343Z" transform="translate(1.751 266.915)" fill="#8699f1"/>
            <path id="Path_138" data-name="Path 138" d="M0,102.763,142.91,0l.017,3.58L.017,106.343Z" transform="translate(1.734 263.335)" fill="#869af1"/>
            <path id="Path_139" data-name="Path 139" d="M0,102.763,142.91,0l.017,3.58L.017,106.344Z" transform="translate(1.717 259.754)" fill="#879bf2"/>
            <path id="Path_140" data-name="Path 140" d="M0,102.763,142.91,0l.017,3.58L.017,106.343Z" transform="translate(1.7 256.174)" fill="#879cf2"/>
            <path id="Path_141" data-name="Path 141" d="M0,102.763,142.91,0l.017,3.58L.017,106.343Z" transform="translate(1.683 252.593)" fill="#879df2"/>
            <path id="Path_142" data-name="Path 142" d="M0,102.763,142.91,0l.017,3.58L.017,106.343Z" transform="translate(1.666 249.013)" fill="#889ef2"/>
            <path id="Path_143" data-name="Path 143" d="M0,102.763,142.91,0l.017,3.58L.017,106.344Z" transform="translate(1.649 245.433)" fill="#889ff3"/>
            <path id="Path_144" data-name="Path 144" d="M0,102.763,142.91,0l.017,3.58L.017,106.343Z" transform="translate(1.633 241.852)" fill="#88a0f3"/>
            <path id="Path_145" data-name="Path 145" d="M0,102.763,142.91,0l.017,3.58L.017,106.343Z" transform="translate(1.616 238.272)" fill="#89a1f3"/>
            <path id="Path_146" data-name="Path 146" d="M0,102.1,141.988,0l.932,1.6.006,1.317L.017,105.68Z" transform="translate(1.599 235.354)" fill="#89a2f3"/>
            <path id="Path_147" data-name="Path 147" d="M0,101.051,140.529,0l1.476,2.531L.017,104.631Z" transform="translate(1.582 232.823)" fill="#89a3f4"/>
            <path id="Path_148" data-name="Path 148" d="M0,100,139.07,0l1.476,2.531L.017,103.582Z" transform="translate(1.565 230.292)" fill="#89a4f4"/>
            <path id="Path_149" data-name="Path 149" d="M0,98.953,137.611,0l1.476,2.531-139.07,100Z" transform="translate(1.548 227.76)" fill="#8aa5f4"/>
            <path id="Path_150" data-name="Path 150" d="M0,97.9,136.152,0l1.476,2.531L.017,101.484Z" transform="translate(1.531 225.229)" fill="#8aa6f4"/>
            <path id="Path_151" data-name="Path 151" d="M0,96.855,134.694,0l1.476,2.531L.017,100.435Z" transform="translate(1.514 222.698)" fill="#8aa7f5"/>
            <path id="Path_152" data-name="Path 152" d="M0,95.806,133.234,0l1.476,2.531L.017,99.386Z" transform="translate(1.497 220.166)" fill="#8ba8f5"/>
            <path id="Path_153" data-name="Path 153" d="M0,94.756,131.776,0l1.476,2.531L.017,98.337Z" transform="translate(1.48 217.635)" fill="#8ba9f5"/>
            <path id="Path_154" data-name="Path 154" d="M0,93.707,130.317,0l1.476,2.531L.017,97.288Z" transform="translate(1.463 215.104)" fill="#8baaf5"/>
            <path id="Path_155" data-name="Path 155" d="M0,92.658,128.858,0l1.476,2.531L.017,96.239Z" transform="translate(1.446 212.572)" fill="#8cabf6"/>
            <path id="Path_156" data-name="Path 156" d="M0,91.609,127.4,0l1.476,2.531L.017,95.19Z" transform="translate(1.429 210.041)" fill="#8cacf6"/>
            <path id="Path_157" data-name="Path 157" d="M0,90.56,125.939,0l1.477,2.531L.017,94.14Z" transform="translate(1.412 207.51)" fill="#8cadf6"/>
            <path id="Path_158" data-name="Path 158" d="M0,89.511,124.481,0l1.476,2.531L.017,93.091Z" transform="translate(1.395 204.979)" fill="#8daef6"/>
            <path id="Path_159" data-name="Path 159" d="M0,88.462,123.022,0,124.5,2.531.017,92.042Z" transform="translate(1.378 202.447)" fill="#8daff7"/>
            <path id="Path_160" data-name="Path 160" d="M0,87.413,121.563,0l1.477,2.531L.017,90.993Z" transform="translate(1.361 199.916)" fill="#8db0f7"/>
            <path id="Path_161" data-name="Path 161" d="M0,86.364,120.1,0l1.476,2.531L.017,89.944Z" transform="translate(1.344 197.385)" fill="#8db1f7"/>
            <path id="Path_162" data-name="Path 162" d="M0,85.315,118.646,0l1.475,2.531L.017,88.9Z" transform="translate(1.327 194.853)" fill="#8eb2f7"/>
            <path id="Path_163" data-name="Path 163" d="M0,84.266,117.186,0l1.477,2.531L.017,87.846Z" transform="translate(1.31 192.322)" fill="#8eb3f8"/>
            <path id="Path_164" data-name="Path 164" d="M0,83.216,115.727,0,117.2,2.531.017,86.8Z" transform="translate(1.293 189.791)" fill="#8eb4f8"/>
            <path id="Path_165" data-name="Path 165" d="M0,82.167,114.268,0l1.476,2.531L.017,85.748Z" transform="translate(1.276 187.259)" fill="#8fb5f8"/>
            <path id="Path_166" data-name="Path 166" d="M0,81.118,112.809,0l1.476,2.531L.017,84.7Z" transform="translate(1.259 184.728)" fill="#8fb6f8"/>
            <path id="Path_167" data-name="Path 167" d="M0,80.069,111.351,0l1.476,2.531L.017,83.65Z" transform="translate(1.242 182.197)" fill="#8fb7f9"/>
            <path id="Path_168" data-name="Path 168" d="M0,79.02,109.892,0l1.476,2.531L.017,82.6Z" transform="translate(1.225 179.665)" fill="#90b8f9"/>
            <path id="Path_169" data-name="Path 169" d="M0,77.971,108.433,0l1.476,2.531L.017,81.552Z" transform="translate(1.208 177.134)" fill="#90b9f9"/>
            <path id="Path_170" data-name="Path 170" d="M0,76.922,106.974,0l1.476,2.531L.017,80.5Z" transform="translate(1.192 174.603)" fill="#90baf9"/>
            <path id="Path_171" data-name="Path 171" d="M0,75.873,105.515,0l1.476,2.531L.017,79.453Z" transform="translate(1.175 172.071)" fill="#91bbfa"/>
            <path id="Path_172" data-name="Path 172" d="M0,74.824,104.056,0l1.476,2.531L.017,78.4Z" transform="translate(1.158 169.54)" fill="#91bcfa"/>
            <path id="Path_173" data-name="Path 173" d="M0,73.775,102.6,0l1.477,2.531L.017,77.355Z" transform="translate(1.141 167.009)" fill="#91bdfa"/>
            <path id="Path_174" data-name="Path 174" d="M0,72.726,101.138,0l1.475,2.531L.017,76.306Z" transform="translate(1.124 164.477)" fill="#91befa"/>
            <path id="Path_175" data-name="Path 175" d="M0,71.677,99.679,0l1.476,2.531L.017,75.257Z" transform="translate(1.107 161.946)" fill="#92bffb"/>
            <path id="Path_176" data-name="Path 176" d="M0,70.628,98.22,0,99.7,2.531.017,74.208Z" transform="translate(1.09 159.415)" fill="#92c0fb"/>
            <path id="Path_177" data-name="Path 177" d="M0,69.578,96.761,0l1.476,2.531L.017,73.159Z" transform="translate(1.073 156.883)" fill="#92c1fb"/>
            <path id="Path_178" data-name="Path 178" d="M0,68.529,95.3,0l1.476,2.531L.017,72.11Z" transform="translate(1.056 154.352)" fill="#93c2fb"/>
            <path id="Path_179" data-name="Path 179" d="M0,67.48,93.843,0l1.476,2.531L.017,71.061Z" transform="translate(1.039 151.821)" fill="#93c3fc"/>
            <path id="Path_180" data-name="Path 180" d="M0,66.431,92.384,0,93.86,2.531.017,70.012Z" transform="translate(1.022 149.289)" fill="#93c4fc"/>
            <path id="Path_181" data-name="Path 181" d="M0,65.382,90.925,0,92.4,2.531.017,68.962Z" transform="translate(1.005 146.758)" fill="#94c5fc"/>
            <path id="Path_182" data-name="Path 182" d="M0,64.333,89.466,0l1.476,2.531L.017,67.913Z" transform="translate(0.988 144.227)" fill="#94c6fc"/>
            <path id="Path_183" data-name="Path 183" d="M0,63.284,88.007,0l1.476,2.531L.017,66.864Z" transform="translate(0.971 141.695)" fill="#94c7fd"/>
            <path id="Path_184" data-name="Path 184" d="M0,62.235,86.548,0l1.477,2.531L.017,65.815Z" transform="translate(0.954 139.164)" fill="#95c8fd"/>
            <path id="Path_185" data-name="Path 185" d="M0,61.186,85.089,0l1.476,2.531L.017,64.766Z" transform="translate(0.937 136.633)" fill="#95c9fd"/>
            <path id="Path_186" data-name="Path 186" d="M0,60.137,83.631,0l1.475,2.531L.017,63.717Z" transform="translate(0.92 134.102)" fill="#95cafd"/>
            <path id="Path_187" data-name="Path 187" d="M0,59.088,82.171,0l1.477,2.531L.017,62.668Z" transform="translate(0.903 131.57)" fill="#95cbfe"/>
            <path id="Path_188" data-name="Path 188" d="M0,58.039,80.712,0l1.476,2.531L.017,61.619Z" transform="translate(0.886 129.039)" fill="#96ccfe"/>
            <path id="Path_189" data-name="Path 189" d="M0,56.989,79.254,0l1.476,2.531L.017,60.57Z" transform="translate(0.869 126.508)" fill="#96cdfe"/>
            <path id="Path_190" data-name="Path 190" d="M0,55.94,77.795,0l1.476,2.531L.017,59.521Z" transform="translate(0.852 123.976)" fill="#96cefe"/>
            <path id="Path_191" data-name="Path 191" d="M0,54.891,76.336,0l1.476,2.531L.017,58.472Z" transform="translate(0.835 121.445)" fill="#97cfff"/>
            <path id="Path_192" data-name="Path 192" d="M0,53.842,74.877,0l1.476,2.531L.017,57.423Z" transform="translate(0.818 118.914)" fill="#97d0ff"/>
            <path id="Path_193" data-name="Path 193" d="M6.372.016l69.323,118.9L.818,172.756,0,0Z" transform="translate(0 0)" fill="#97d0ff"/>
          </g>
        </g>
      </g>
      <g id="Group_12" data-name="Group 12" transform="translate(0 0)">
        <g id="Group_11" data-name="Group 11" transform="translate(0 0)">
          <g id="Group_10" data-name="Group 10" transform="translate(0)" clip-path="url(#clip-path-4)">
            <path id="Path_840" data-name="Path 840" d="M0,0,151.363.376l.022,4.661L.022,4.661Z" transform="translate(3.15 679.648)" fill="#7fd9ff"/>
            <path id="Path_841" data-name="Path 841" d="M0,0,151.363.376l.022,4.661L.022,4.661Z" transform="translate(3.128 674.986)" fill="#7fd8ff"/>
            <path id="Path_842" data-name="Path 842" d="M0,0,151.363.376l.022,4.661L.022,4.661Z" transform="translate(3.106 670.326)" fill="#7fd7ff"/>
            <path id="Path_843" data-name="Path 843" d="M0,0,151.363.376l.022,4.661L.022,4.661Z" transform="translate(3.084 665.665)" fill="#7ed6fe"/>
            <path id="Path_844" data-name="Path 844" d="M0,0,151.363.376l.022,4.661L.022,4.661Z" transform="translate(3.062 661.004)" fill="#7ed5fe"/>
            <path id="Path_845" data-name="Path 845" d="M0,0,151.363.376l.022,4.661L.022,4.661Z" transform="translate(3.04 656.343)" fill="#7ed4fe"/>
            <path id="Path_846" data-name="Path 846" d="M0,0,151.363.376l.022,4.661L.022,4.661Z" transform="translate(3.018 651.682)" fill="#7ed3fe"/>
            <path id="Path_847" data-name="Path 847" d="M0,0,151.363.376l.022,4.661L.022,4.661Z" transform="translate(2.996 647.021)" fill="#7dd2fd"/>
            <path id="Path_848" data-name="Path 848" d="M0,0,151.363.376l.022,4.661L.022,4.661Z" transform="translate(2.973 642.36)" fill="#7dd1fd"/>
            <path id="Path_849" data-name="Path 849" d="M0,0,151.363.376l.022,4.661L.022,4.661Z" transform="translate(2.951 637.7)" fill="#7dd0fd"/>
            <path id="Path_850" data-name="Path 850" d="M0,0,151.363.376l.022,4.661L.022,4.661Z" transform="translate(2.929 633.039)" fill="#7dcffd"/>
            <path id="Path_851" data-name="Path 851" d="M0,0,151.363.376l.022,4.661L.022,4.661Z" transform="translate(2.907 628.378)" fill="#7ccefc"/>
            <path id="Path_852" data-name="Path 852" d="M0,0,151.363.376l.022,4.661L.022,4.661Z" transform="translate(2.885 623.717)" fill="#7ccdfc"/>
            <path id="Path_853" data-name="Path 853" d="M0,0,151.363.376l.022,4.661L.022,4.661Z" transform="translate(2.863 619.056)" fill="#7cccfc"/>
            <path id="Path_854" data-name="Path 854" d="M0,0,151.363.376l.022,4.661L.022,4.661Z" transform="translate(2.841 614.395)" fill="#7ccbfc"/>
            <path id="Path_855" data-name="Path 855" d="M0,0,151.363.376l.022,4.661L.022,4.661Z" transform="translate(2.819 609.734)" fill="#7bcafc"/>
            <path id="Path_856" data-name="Path 856" d="M0,0,151.363.376l.022,4.661L.022,4.661Z" transform="translate(2.797 605.073)" fill="#7bc9fb"/>
            <path id="Path_857" data-name="Path 857" d="M0,0,151.363.376l.022,4.661L.022,4.661Z" transform="translate(2.775 600.413)" fill="#7bc8fb"/>
            <path id="Path_858" data-name="Path 858" d="M0,0,151.363.376l.022,4.661L.022,4.661Z" transform="translate(2.753 595.752)" fill="#7bc7fb"/>
            <path id="Path_859" data-name="Path 859" d="M0,0,151.363.376l.022,4.661L.022,4.661Z" transform="translate(2.731 591.091)" fill="#7bc6fb"/>
            <path id="Path_860" data-name="Path 860" d="M0,0,151.363.376l.022,4.661L.022,4.661Z" transform="translate(2.708 586.43)" fill="#7ac5fa"/>
            <path id="Path_861" data-name="Path 861" d="M0,0,151.363.376l.022,4.661L.022,4.661Z" transform="translate(2.686 581.769)" fill="#7ac4fa"/>
            <path id="Path_862" data-name="Path 862" d="M0,0,151.363.376l.022,4.661L.022,4.661Z" transform="translate(2.664 577.108)" fill="#7ac3fa"/>
            <path id="Path_863" data-name="Path 863" d="M0,0,151.363.376l.022,4.661L.022,4.661Z" transform="translate(2.642 572.447)" fill="#7ac2fa"/>
            <path id="Path_864" data-name="Path 864" d="M0,0,151.363.376l.022,4.661L.022,4.661Z" transform="translate(2.62 567.786)" fill="#79c1fa"/>
            <path id="Path_865" data-name="Path 865" d="M0,0,151.363.376l.022,4.661L.022,4.661Z" transform="translate(2.598 563.126)" fill="#79c0f9"/>
            <path id="Path_866" data-name="Path 866" d="M0,0,151.363.376l.022,4.661L.022,4.661Z" transform="translate(2.576 558.465)" fill="#79bff9"/>
            <path id="Path_867" data-name="Path 867" d="M0,0,151.363.376l.022,4.661L.022,4.661Z" transform="translate(2.554 553.804)" fill="#79bef9"/>
            <path id="Path_868" data-name="Path 868" d="M0,0,151.363.376l.022,4.661L.022,4.661Z" transform="translate(2.532 549.143)" fill="#78bdf9"/>
            <path id="Path_869" data-name="Path 869" d="M0,0,151.363.376l.022,4.661L.022,4.661Z" transform="translate(2.51 544.482)" fill="#78bcf8"/>
            <path id="Path_870" data-name="Path 870" d="M0,0,151.363.376l.022,4.661L.022,4.661Z" transform="translate(2.488 539.821)" fill="#78bbf8"/>
            <path id="Path_871" data-name="Path 871" d="M0,0,151.363.376l.022,4.661L.022,4.661Z" transform="translate(2.466 535.16)" fill="#78baf8"/>
            <path id="Path_872" data-name="Path 872" d="M0,0,151.363.376l.022,4.661L.022,4.661Z" transform="translate(2.444 530.5)" fill="#77b9f8"/>
            <path id="Path_873" data-name="Path 873" d="M0,0,151.363.376l.022,4.661L.022,4.661Z" transform="translate(2.421 525.839)" fill="#77b8f7"/>
            <path id="Path_874" data-name="Path 874" d="M0,0,151.363.376l.022,4.661L.022,4.661Z" transform="translate(2.399 521.178)" fill="#77b7f7"/>
            <path id="Path_875" data-name="Path 875" d="M0,0,151.363.376l.022,4.661L.022,4.661Z" transform="translate(2.377 516.517)" fill="#77b6f7"/>
            <path id="Path_876" data-name="Path 876" d="M0,0,151.363.376l.022,4.661L.022,4.661Z" transform="translate(2.355 511.856)" fill="#77b5f7"/>
            <path id="Path_877" data-name="Path 877" d="M0,0,151.363.376l.022,4.661L.022,4.661Z" transform="translate(2.333 507.195)" fill="#76b4f7"/>
            <path id="Path_878" data-name="Path 878" d="M0,0,151.363.376l.022,4.661L.022,4.661Z" transform="translate(2.311 502.534)" fill="#76b3f6"/>
            <path id="Path_879" data-name="Path 879" d="M0,0,151.363.376l.022,4.661L.022,4.661Z" transform="translate(2.289 497.873)" fill="#76b2f6"/>
            <path id="Path_880" data-name="Path 880" d="M0,0,151.363.376l.022,4.661L.022,4.661Z" transform="translate(2.267 493.212)" fill="#76b1f6"/>
            <path id="Path_881" data-name="Path 881" d="M0,0,151.363.376l.022,4.661L.022,4.661Z" transform="translate(2.245 488.552)" fill="#75b0f6"/>
            <path id="Path_882" data-name="Path 882" d="M0,0,151.363.376l.022,4.661L.022,4.661Z" transform="translate(2.223 483.891)" fill="#75aff5"/>
            <path id="Path_883" data-name="Path 883" d="M0,0,151.363.376l.022,4.661L.022,4.661Z" transform="translate(2.201 479.23)" fill="#75aef5"/>
            <path id="Path_884" data-name="Path 884" d="M0,0,151.363.376l.022,4.661L.022,4.661Z" transform="translate(2.179 474.569)" fill="#75adf5"/>
            <path id="Path_885" data-name="Path 885" d="M0,0,151.363.376l.022,4.661L.022,4.661Z" transform="translate(2.156 469.908)" fill="#74acf5"/>
            <path id="Path_886" data-name="Path 886" d="M0,0,151.363.376l.022,4.661L.022,4.661Z" transform="translate(2.134 465.247)" fill="#74abf4"/>
            <path id="Path_887" data-name="Path 887" d="M0,0,151.363.376l.022,4.661L.022,4.661Z" transform="translate(2.112 460.586)" fill="#74aaf4"/>
            <path id="Path_888" data-name="Path 888" d="M0,0,151.363.376l.022,4.661L.022,4.661Z" transform="translate(2.09 455.926)" fill="#74a9f4"/>
            <path id="Path_889" data-name="Path 889" d="M0,0,151.363.376l.022,4.661L.022,4.661Z" transform="translate(2.068 451.265)" fill="#73a8f4"/>
            <path id="Path_890" data-name="Path 890" d="M0,0,151.363.376l.022,4.661L.022,4.661Z" transform="translate(2.046 446.604)" fill="#73a7f4"/>
            <path id="Path_891" data-name="Path 891" d="M0,0,151.363.376l.022,4.661L.022,4.661Z" transform="translate(2.024 441.943)" fill="#73a6f3"/>
            <path id="Path_892" data-name="Path 892" d="M0,0,151.363.376l.022,4.661L.022,4.661Z" transform="translate(2.002 437.282)" fill="#73a5f3"/>
            <path id="Path_893" data-name="Path 893" d="M0,0,151.363.376l.022,4.661L.022,4.661Z" transform="translate(1.98 432.621)" fill="#73a4f3"/>
            <path id="Path_894" data-name="Path 894" d="M0,0,151.363.376l.022,4.661L.022,4.661Z" transform="translate(1.958 427.96)" fill="#72a3f3"/>
            <path id="Path_895" data-name="Path 895" d="M0,0,151.363.376l.022,4.661L.022,4.661Z" transform="translate(1.936 423.299)" fill="#72a2f2"/>
            <path id="Path_896" data-name="Path 896" d="M0,0,151.363.376l.022,4.661L.022,4.661Z" transform="translate(1.914 418.639)" fill="#72a1f2"/>
            <path id="Path_897" data-name="Path 897" d="M0,0,151.363.376l.022,4.661L.022,4.661Z" transform="translate(1.892 413.978)" fill="#72a0f2"/>
            <path id="Path_898" data-name="Path 898" d="M0,0,151.363.376l.022,4.661L.022,4.661Z" transform="translate(1.869 409.317)" fill="#719ff2"/>
            <path id="Path_899" data-name="Path 899" d="M0,0,151.363.376l.022,4.661L.022,4.661Z" transform="translate(1.847 404.656)" fill="#719ef2"/>
            <path id="Path_900" data-name="Path 900" d="M0,0,151.363.376l.022,4.661L.022,4.661Z" transform="translate(1.825 399.995)" fill="#719df1"/>
            <path id="Path_901" data-name="Path 901" d="M0,0,151.363.376l.022,4.661L.022,4.661Z" transform="translate(1.803 395.334)" fill="#719cf1"/>
            <path id="Path_902" data-name="Path 902" d="M0,0,151.363.376l.022,4.661L.022,4.661Z" transform="translate(1.781 390.673)" fill="#709bf1"/>
            <path id="Path_903" data-name="Path 903" d="M0,0,151.363.376l.022,4.661L.022,4.661Z" transform="translate(1.759 386.013)" fill="#709af1"/>
            <path id="Path_904" data-name="Path 904" d="M0,0,151.363.376l.022,4.661L.022,4.661Z" transform="translate(1.737 381.352)" fill="#7099f0"/>
            <path id="Path_905" data-name="Path 905" d="M0,0,151.363.376l.022,4.661L.022,4.661Z" transform="translate(1.715 376.691)" fill="#7098f0"/>
            <path id="Path_906" data-name="Path 906" d="M0,0,151.363.376l.022,4.661L.022,4.661Z" transform="translate(1.693 372.03)" fill="#6f97f0"/>
            <path id="Path_907" data-name="Path 907" d="M0,0,151.363.376l.022,4.661L.022,4.661Z" transform="translate(1.671 367.369)" fill="#6f96f0"/>
            <path id="Path_908" data-name="Path 908" d="M0,0,151.363.376l.022,4.661L.022,4.661Z" transform="translate(1.649 362.708)" fill="#6f95ef"/>
            <path id="Path_909" data-name="Path 909" d="M0,0,151.363.376l.022,4.661L.022,4.661Z" transform="translate(1.627 358.047)" fill="#6f94ef"/>
            <path id="Path_910" data-name="Path 910" d="M0,0,151.363.376l.022,4.661L.022,4.661Z" transform="translate(1.604 353.386)" fill="#6e92ef"/>
            <path id="Path_911" data-name="Path 911" d="M0,0,151.363.376l.022,4.661L.022,4.661Z" transform="translate(1.582 348.726)" fill="#6e91ef"/>
            <path id="Path_912" data-name="Path 912" d="M0,0,151.363.376l.022,4.661L.022,4.661Z" transform="translate(1.56 344.065)" fill="#6e90ef"/>
            <path id="Path_913" data-name="Path 913" d="M0,0,151.363.376l.022,4.661L.022,4.661Z" transform="translate(1.538 339.404)" fill="#6e8fee"/>
            <path id="Path_914" data-name="Path 914" d="M0,0,151.363.376l.022,4.661L.022,4.661Z" transform="translate(1.516 334.743)" fill="#6e8eee"/>
            <path id="Path_915" data-name="Path 915" d="M0,0,151.363.376l.022,4.661L.022,4.661Z" transform="translate(1.494 330.082)" fill="#6d8dee"/>
            <path id="Path_916" data-name="Path 916" d="M0,0,151.363.376l.022,4.661L.022,4.661Z" transform="translate(1.472 325.421)" fill="#6d8cee"/>
            <path id="Path_917" data-name="Path 917" d="M0,0,151.363.376l.022,4.661L.022,4.661Z" transform="translate(1.45 320.76)" fill="#6d8bed"/>
            <path id="Path_918" data-name="Path 918" d="M0,0,151.363.376l.022,4.661L.022,4.661Z" transform="translate(1.428 316.099)" fill="#6d8aed"/>
            <path id="Path_919" data-name="Path 919" d="M0,0,151.363.376l.022,4.661L.022,4.661Z" transform="translate(1.406 311.439)" fill="#6c89ed"/>
            <path id="Path_920" data-name="Path 920" d="M0,0,151.363.376l.022,4.661L.022,4.661Z" transform="translate(1.384 306.778)" fill="#6c88ed"/>
            <path id="Path_921" data-name="Path 921" d="M0,0,151.363.376l.022,4.661L.022,4.661Z" transform="translate(1.362 302.117)" fill="#6c87ec"/>
            <path id="Path_922" data-name="Path 922" d="M0,0,151.363.376l.022,4.661L.022,4.661Z" transform="translate(1.34 297.456)" fill="#6c86ec"/>
            <path id="Path_923" data-name="Path 923" d="M0,0,151.363.376l.022,4.661L.022,4.661Z" transform="translate(1.317 292.795)" fill="#6b85ec"/>
            <path id="Path_924" data-name="Path 924" d="M0,0,151.363.376l.022,4.661L.022,4.661Z" transform="translate(1.295 288.134)" fill="#6b84ec"/>
            <path id="Path_925" data-name="Path 925" d="M0,0,151.363.376l.022,4.661L.022,4.661Z" transform="translate(1.273 283.473)" fill="#6b83ec"/>
            <path id="Path_926" data-name="Path 926" d="M0,0,151.363.376l.022,4.661L.022,4.661Z" transform="translate(1.251 278.813)" fill="#6b82eb"/>
            <path id="Path_927" data-name="Path 927" d="M0,0,151.363.376l.022,4.661L.022,4.661Z" transform="translate(1.229 274.152)" fill="#6a81eb"/>
            <path id="Path_928" data-name="Path 928" d="M0,0,151.363.376l.022,4.661L.022,4.661Z" transform="translate(1.207 269.491)" fill="#6a80eb"/>
            <path id="Path_929" data-name="Path 929" d="M0,0,151.363.376l.022,4.661L.022,4.661Z" transform="translate(1.185 264.83)" fill="#6a7feb"/>
            <path id="Path_930" data-name="Path 930" d="M0,0,151.363.376l.022,4.661L.022,4.661Z" transform="translate(1.163 260.169)" fill="#6a7eea"/>
            <path id="Path_931" data-name="Path 931" d="M0,0,151.363.376l.022,4.661L.022,4.661Z" transform="translate(1.141 255.508)" fill="#6a7dea"/>
            <path id="Path_932" data-name="Path 932" d="M0,0,151.363.376l.022,4.661L.022,4.661Z" transform="translate(1.119 250.847)" fill="#697cea"/>
            <path id="Path_933" data-name="Path 933" d="M0,0,151.363.376l.022,4.661L.022,4.661Z" transform="translate(1.097 246.186)" fill="#697bea"/>
            <path id="Path_934" data-name="Path 934" d="M0,0,151.363.376l.022,4.661L.022,4.661Z" transform="translate(1.075 241.525)" fill="#697aea"/>
            <path id="Path_935" data-name="Path 935" d="M0,0,151.363.376l.022,4.661L.022,4.661Z" transform="translate(1.053 236.865)" fill="#6979e9"/>
            <path id="Path_936" data-name="Path 936" d="M0,0,151.363.376l.022,4.661L.022,4.661Z" transform="translate(1.03 232.204)" fill="#6878e9"/>
            <path id="Path_937" data-name="Path 937" d="M0,0,151.363.376l.022,4.661L.022,4.661Z" transform="translate(1.008 227.543)" fill="#6877e9"/>
            <path id="Path_938" data-name="Path 938" d="M0,0,151.363.376l.022,4.661L.022,4.661Z" transform="translate(0.986 222.882)" fill="#6876e9"/>
            <path id="Path_939" data-name="Path 939" d="M0,0,151.363.376l.022,4.661L.022,4.661Z" transform="translate(0.964 218.221)" fill="#6875e8"/>
            <path id="Path_940" data-name="Path 940" d="M0,0,151.363.376l.022,4.661L.022,4.661Z" transform="translate(0.942 213.56)" fill="#6774e8"/>
            <path id="Path_941" data-name="Path 941" d="M0,0,151.363.376l.022,4.661L.022,4.661Z" transform="translate(0.92 208.899)" fill="#6773e8"/>
            <path id="Path_942" data-name="Path 942" d="M0,0,151.363.376l.022,4.661L.022,4.661Z" transform="translate(0.898 204.239)" fill="#6772e8"/>
            <path id="Path_943" data-name="Path 943" d="M0,0,151.363.376l.022,4.661L.022,4.661Z" transform="translate(0.876 199.578)" fill="#6771e7"/>
            <path id="Path_944" data-name="Path 944" d="M0,0,151.363.376l.022,4.661L.022,4.661Z" transform="translate(0.854 194.917)" fill="#6670e7"/>
            <path id="Path_945" data-name="Path 945" d="M0,0,151.363.376l.022,4.661L.022,4.661Z" transform="translate(0.832 190.256)" fill="#666fe7"/>
            <path id="Path_946" data-name="Path 946" d="M0,0,151.363.376l.022,4.661L.022,4.661Z" transform="translate(0.81 185.595)" fill="#666ee7"/>
            <path id="Path_947" data-name="Path 947" d="M0,0,151.363.376l.022,4.661L.022,4.661Z" transform="translate(0.788 180.934)" fill="#666de7"/>
            <path id="Path_948" data-name="Path 948" d="M0,0,151.363.376l.022,4.661L.022,4.661Z" transform="translate(0.765 176.273)" fill="#666ce6"/>
            <path id="Path_949" data-name="Path 949" d="M0,0,151.363.376l.022,4.661L.022,4.661Z" transform="translate(0.743 171.612)" fill="#656be6"/>
            <path id="Path_950" data-name="Path 950" d="M0,0,151.363.376l.022,4.661L.022,4.661Z" transform="translate(0.721 166.952)" fill="#656ae6"/>
            <path id="Path_951" data-name="Path 951" d="M0,0,151.363.376l.022,4.661L.022,4.661Z" transform="translate(0.699 162.291)" fill="#6569e6"/>
            <path id="Path_952" data-name="Path 952" d="M0,0,151.363.376l.022,4.661L.022,4.661Z" transform="translate(0.677 157.63)" fill="#6568e5"/>
            <path id="Path_953" data-name="Path 953" d="M0,0,151.363.376l.022,4.661L.022,4.661Z" transform="translate(0.655 152.969)" fill="#6467e5"/>
            <path id="Path_954" data-name="Path 954" d="M0,0,151.363.376l.022,4.661L.022,4.661Z" transform="translate(0.633 148.308)" fill="#6466e5"/>
            <path id="Path_955" data-name="Path 955" d="M0,0,151.363.376l.022,4.661L.022,4.661Z" transform="translate(0.611 143.647)" fill="#6465e5"/>
            <path id="Path_956" data-name="Path 956" d="M0,0,151.363.376l.022,4.661L.022,4.661Z" transform="translate(0.589 138.986)" fill="#6464e4"/>
            <path id="Path_957" data-name="Path 957" d="M0,0,151.363.376l.022,4.661L.022,4.661Z" transform="translate(0.567 134.326)" fill="#6363e4"/>
            <path id="Path_958" data-name="Path 958" d="M0,0,151.363.376l.022,4.661L.022,4.661Z" transform="translate(0.545 129.665)" fill="#6362e4"/>
            <path id="Path_959" data-name="Path 959" d="M0,0,151.363.376l.022,4.661L.022,4.661Z" transform="translate(0.523 125.004)" fill="#6361e4"/>
            <path id="Path_960" data-name="Path 960" d="M0,0,151.363.376l.022,4.661L.022,4.661Z" transform="translate(0.501 120.343)" fill="#6360e4"/>
            <path id="Path_961" data-name="Path 961" d="M0,0,151.363.376l.022,4.661L.022,4.661Z" transform="translate(0.478 115.682)" fill="#625fe3"/>
            <path id="Path_962" data-name="Path 962" d="M0,0,151.363.376l.022,4.661L.022,4.661Z" transform="translate(0.456 111.021)" fill="#625ee3"/>
            <path id="Path_963" data-name="Path 963" d="M0,0,151.363.376l.022,4.661L.022,4.661Z" transform="translate(0.434 106.36)" fill="#625de3"/>
            <path id="Path_964" data-name="Path 964" d="M0,0,151.363.376l.022,4.661L.022,4.661Z" transform="translate(0.412 101.699)" fill="#625ce3"/>
            <path id="Path_965" data-name="Path 965" d="M0,0,151.363.376l.022,4.661L.022,4.661Z" transform="translate(0.39 97.038)" fill="#625be2"/>
            <path id="Path_966" data-name="Path 966" d="M0,0,151.363.376l.022,4.661L.022,4.661Z" transform="translate(0.368 92.378)" fill="#615ae2"/>
            <path id="Path_967" data-name="Path 967" d="M0,0,151.363.376l.022,4.661L.022,4.661Z" transform="translate(0.346 87.717)" fill="#6159e2"/>
            <path id="Path_968" data-name="Path 968" d="M0,0,151.363.376l.022,4.661L.022,4.661Z" transform="translate(0.324 83.056)" fill="#6158e2"/>
            <path id="Path_969" data-name="Path 969" d="M0,0,151.363.376l.022,4.661L.022,4.661Z" transform="translate(0.302 78.395)" fill="#6157e2"/>
            <path id="Path_970" data-name="Path 970" d="M0,0,151.363.376l.022,4.661L.022,4.661Z" transform="translate(0.28 73.734)" fill="#6056e1"/>
            <path id="Path_971" data-name="Path 971" d="M0,0,151.363.376l.022,4.661L.022,4.661Z" transform="translate(0.258 69.073)" fill="#6055e1"/>
            <path id="Path_972" data-name="Path 972" d="M0,0,151.363.376l.022,4.661L.022,4.661Z" transform="translate(0.236 64.412)" fill="#6054e1"/>
            <path id="Path_973" data-name="Path 973" d="M0,0,151.363.376l.022,4.661L.022,4.661Z" transform="translate(0.213 59.752)" fill="#6053e1"/>
            <path id="Path_974" data-name="Path 974" d="M0,0,151.363.376l.022,4.661L.022,4.661Z" transform="translate(0.191 55.091)" fill="#5f52e0"/>
            <path id="Path_975" data-name="Path 975" d="M0,0,151.363.376l.022,4.661L.022,4.661Z" transform="translate(0.169 50.43)" fill="#5f51e0"/>
            <path id="Path_976" data-name="Path 976" d="M0,0,151.363.376l.022,4.661L.022,4.661Z" transform="translate(0.147 45.769)" fill="#5f50e0"/>
            <path id="Path_977" data-name="Path 977" d="M0,0,151.363.376l.022,4.661L.022,4.661Z" transform="translate(0.125 41.108)" fill="#5f4fe0"/>
            <path id="Path_978" data-name="Path 978" d="M0,0,151.363.376l.022,4.661L.022,4.661Z" transform="translate(0.103 36.447)" fill="#5e4edf"/>
            <path id="Path_979" data-name="Path 979" d="M0,0,151.363.376l.022,4.661L.022,4.661Z" transform="translate(0.081 31.786)" fill="#5e4ddf"/>
            <path id="Path_980" data-name="Path 980" d="M0,0,151.363.376l.022,4.661L.022,4.661Z" transform="translate(0.059 27.125)" fill="#5e4cdf"/>
            <path id="Path_981" data-name="Path 981" d="M0,0,151.363.376l.129,27.156L.129,27.156Z" transform="translate(-0.07 -0.031)" fill="#5e4cdf"/>
          </g>
        </g>
      </g>
      <g id="Group_15" data-name="Group 15" transform="translate(245.397 145.283)">
        <g id="Group_14" data-name="Group 14" transform="translate(0)">
          <g id="Group_13" data-name="Group 13" transform="translate(0)" clip-path="url(#clip-path-5)">
            <path id="Path_195" data-name="Path 195" d="M0,0,151.364.376Z" transform="translate(2.477 539.632)" fill="#9863c9"/>
            <path id="Path_983" data-name="Path 983" d="M0,0,151.363.376l.023,4.862L.023,4.862Z" transform="translate(2.454 534.771)" fill="#9863c9"/>
            <path id="Path_984" data-name="Path 984" d="M0,0,151.363.376l.023,4.862L.023,4.862Z" transform="translate(2.431 529.909)" fill="#9964c8"/>
            <path id="Path_985" data-name="Path 985" d="M0,0,151.363.376l.023,4.862L.023,4.862Z" transform="translate(2.408 525.047)" fill="#9a65c7"/>
            <path id="Path_986" data-name="Path 986" d="M0,0,151.363.376l.023,4.862L.023,4.862Z" transform="translate(2.385 520.185)" fill="#9b66c6"/>
            <path id="Path_987" data-name="Path 987" d="M0,0,151.363.376l.023,4.862L.023,4.862Z" transform="translate(2.362 515.323)" fill="#9c67c5"/>
            <path id="Path_988" data-name="Path 988" d="M0,0,151.363.376l.023,4.862L.023,4.862Z" transform="translate(2.339 510.461)" fill="#9d68c4"/>
            <path id="Path_989" data-name="Path 989" d="M0,0,151.363.376l.023,4.862L.023,4.862Z" transform="translate(2.316 505.6)" fill="#9e69c4"/>
            <path id="Path_990" data-name="Path 990" d="M0,0,151.363.376l.023,4.862L.023,4.862Z" transform="translate(2.293 500.738)" fill="#9f6ac3"/>
            <path id="Path_991" data-name="Path 991" d="M0,0,151.363.376l.023,4.862L.023,4.862Z" transform="translate(2.27 495.876)" fill="#9f6bc2"/>
            <path id="Path_992" data-name="Path 992" d="M0,0,151.363.376l.023,4.862L.023,4.862Z" transform="translate(2.247 491.014)" fill="#a06cc1"/>
            <path id="Path_993" data-name="Path 993" d="M0,0,151.363.376l.023,4.862L.023,4.862Z" transform="translate(2.224 486.152)" fill="#a16dc0"/>
            <path id="Path_994" data-name="Path 994" d="M0,0,151.363.376l.023,4.862L.023,4.862Z" transform="translate(2.201 481.29)" fill="#a26ebf"/>
            <path id="Path_995" data-name="Path 995" d="M0,0,151.363.376l.023,4.862L.023,4.862Z" transform="translate(2.178 476.428)" fill="#a36fbe"/>
            <path id="Path_996" data-name="Path 996" d="M0,0,151.363.376l.023,4.862L.023,4.862Z" transform="translate(2.155 471.567)" fill="#a470bd"/>
            <path id="Path_997" data-name="Path 997" d="M0,0,151.363.376l.023,4.862L.023,4.862Z" transform="translate(2.132 466.705)" fill="#a571bc"/>
            <path id="Path_998" data-name="Path 998" d="M0,0,151.363.376l.023,4.862L.023,4.862Z" transform="translate(2.109 461.843)" fill="#a672bb"/>
            <path id="Path_999" data-name="Path 999" d="M0,0,151.363.376l.023,4.862L.023,4.862Z" transform="translate(2.086 456.981)" fill="#a773bb"/>
            <path id="Path_1000" data-name="Path 1000" d="M0,0,151.363.376l.023,4.862L.023,4.862Z" transform="translate(2.063 452.119)" fill="#a874ba"/>
            <path id="Path_1001" data-name="Path 1001" d="M0,0,151.363.376l.023,4.862L.023,4.862Z" transform="translate(2.04 447.257)" fill="#a975b9"/>
            <path id="Path_1002" data-name="Path 1002" d="M0,0,151.363.376l.023,4.862L.023,4.862Z" transform="translate(2.017 442.395)" fill="#aa76b8"/>
            <path id="Path_1003" data-name="Path 1003" d="M0,0,151.363.376l.023,4.862L.023,4.862Z" transform="translate(1.994 437.533)" fill="#ab77b7"/>
            <path id="Path_1004" data-name="Path 1004" d="M0,0,151.363.376l.023,4.862L.023,4.862Z" transform="translate(1.971 432.671)" fill="#ac78b6"/>
            <path id="Path_1005" data-name="Path 1005" d="M0,0,151.363.376l.023,4.862L.023,4.862Z" transform="translate(1.948 427.81)" fill="#ad79b5"/>
            <path id="Path_1006" data-name="Path 1006" d="M0,0,151.363.376l.023,4.862L.023,4.862Z" transform="translate(1.925 422.948)" fill="#ae7ab4"/>
            <path id="Path_1007" data-name="Path 1007" d="M0,0,151.363.376l.023,4.862L.023,4.862Z" transform="translate(1.902 418.086)" fill="#ae7bb3"/>
            <path id="Path_1008" data-name="Path 1008" d="M0,0,151.363.376l.023,4.862L.023,4.862Z" transform="translate(1.879 413.224)" fill="#af7cb2"/>
            <path id="Path_1009" data-name="Path 1009" d="M0,0,151.363.376l.023,4.862L.023,4.862Z" transform="translate(1.856 408.362)" fill="#b07db2"/>
            <path id="Path_1010" data-name="Path 1010" d="M0,0,151.363.376l.023,4.862L.023,4.862Z" transform="translate(1.833 403.5)" fill="#b17eb1"/>
            <path id="Path_1011" data-name="Path 1011" d="M0,0,151.363.376l.023,4.862L.023,4.862Z" transform="translate(1.81 398.638)" fill="#b27fb0"/>
            <path id="Path_1012" data-name="Path 1012" d="M0,0,151.363.376l.023,4.862L.023,4.862Z" transform="translate(1.787 393.777)" fill="#b380af"/>
            <path id="Path_1013" data-name="Path 1013" d="M0,0,151.363.376l.023,4.862L.023,4.862Z" transform="translate(1.764 388.915)" fill="#b481ae"/>
            <path id="Path_1014" data-name="Path 1014" d="M0,0,151.363.376l.023,4.862L.023,4.862Z" transform="translate(1.741 384.053)" fill="#b582ad"/>
            <path id="Path_1015" data-name="Path 1015" d="M0,0,151.363.376l.023,4.862L.023,4.862Z" transform="translate(1.717 379.191)" fill="#b683ac"/>
            <path id="Path_1016" data-name="Path 1016" d="M0,0,151.363.376l.023,4.862L.023,4.862Z" transform="translate(1.694 374.329)" fill="#b784ab"/>
            <path id="Path_1017" data-name="Path 1017" d="M0,0,151.363.376l.023,4.862L.023,4.862Z" transform="translate(1.671 369.467)" fill="#b885aa"/>
            <path id="Path_1018" data-name="Path 1018" d="M0,0,151.363.376l.023,4.862L.023,4.862Z" transform="translate(1.648 364.605)" fill="#b986a9"/>
            <path id="Path_1019" data-name="Path 1019" d="M0,0,151.363.376l.023,4.862L.023,4.862Z" transform="translate(1.625 359.743)" fill="#ba87a9"/>
            <path id="Path_1020" data-name="Path 1020" d="M0,0,151.363.376l.023,4.862L.023,4.862Z" transform="translate(1.602 354.881)" fill="#bb88a8"/>
            <path id="Path_1021" data-name="Path 1021" d="M0,0,151.363.376l.023,4.862L.023,4.862Z" transform="translate(1.579 350.02)" fill="#bc89a7"/>
            <path id="Path_1022" data-name="Path 1022" d="M0,0,151.363.376l.023,4.862L.023,4.862Z" transform="translate(1.556 345.158)" fill="#bd8aa6"/>
            <path id="Path_1023" data-name="Path 1023" d="M0,0,151.363.376l.023,4.862L.023,4.862Z" transform="translate(1.533 340.296)" fill="#bd8ba5"/>
            <path id="Path_1024" data-name="Path 1024" d="M0,0,151.363.376l.023,4.862L.023,4.862Z" transform="translate(1.51 335.434)" fill="#be8ca4"/>
            <path id="Path_1025" data-name="Path 1025" d="M0,0,151.363.376l.023,4.862L.023,4.862Z" transform="translate(1.487 330.572)" fill="#bf8da3"/>
            <path id="Path_1026" data-name="Path 1026" d="M0,0,151.363.376l.023,4.862L.023,4.862Z" transform="translate(1.464 325.71)" fill="#c08ea2"/>
            <path id="Path_1027" data-name="Path 1027" d="M0,0,151.363.376l.023,4.862L.023,4.862Z" transform="translate(1.441 320.848)" fill="#c18fa1"/>
            <path id="Path_1028" data-name="Path 1028" d="M0,0,151.363.376l.023,4.862L.023,4.862Z" transform="translate(1.418 315.986)" fill="#c290a0"/>
            <path id="Path_1029" data-name="Path 1029" d="M0,0,151.363.376l.023,4.862L.023,4.862Z" transform="translate(1.395 311.125)" fill="#c391a0"/>
            <path id="Path_1030" data-name="Path 1030" d="M0,0,151.363.376l.023,4.862L.023,4.862Z" transform="translate(1.372 306.263)" fill="#c4929f"/>
            <path id="Path_1031" data-name="Path 1031" d="M0,0,151.363.376l.023,4.862L.023,4.862Z" transform="translate(1.349 301.401)" fill="#c5939e"/>
            <path id="Path_1032" data-name="Path 1032" d="M0,0,151.363.376l.023,4.862L.023,4.862Z" transform="translate(1.326 296.539)" fill="#c6949d"/>
            <path id="Path_1033" data-name="Path 1033" d="M0,0,151.363.376l.023,4.862L.023,4.862Z" transform="translate(1.303 291.677)" fill="#c7959c"/>
            <path id="Path_1034" data-name="Path 1034" d="M0,0,151.363.376l.023,4.862L.023,4.862Z" transform="translate(1.28 286.815)" fill="#c8969b"/>
            <path id="Path_1035" data-name="Path 1035" d="M0,0,151.363.376l.023,4.862L.023,4.862Z" transform="translate(1.257 281.953)" fill="#c9979a"/>
            <path id="Path_1036" data-name="Path 1036" d="M0,0,151.363.376l.023,4.862L.023,4.862Z" transform="translate(1.234 277.091)" fill="#ca9899"/>
            <path id="Path_1037" data-name="Path 1037" d="M0,0,151.363.376l.023,4.862L.023,4.862Z" transform="translate(1.211 272.23)" fill="#cb9998"/>
            <path id="Path_1038" data-name="Path 1038" d="M0,0,151.363.376l.023,4.862L.023,4.862Z" transform="translate(1.188 267.368)" fill="#cc9b97"/>
            <path id="Path_1039" data-name="Path 1039" d="M0,0,151.363.376l.023,4.862L.023,4.862Z" transform="translate(1.165 262.506)" fill="#cc9c97"/>
            <path id="Path_1040" data-name="Path 1040" d="M0,0,151.363.376l.023,4.862L.023,4.862Z" transform="translate(1.142 257.644)" fill="#cd9d96"/>
            <path id="Path_1041" data-name="Path 1041" d="M0,0,151.363.376l.023,4.862L.023,4.862Z" transform="translate(1.119 252.782)" fill="#ce9e95"/>
            <path id="Path_1042" data-name="Path 1042" d="M0,0,151.363.376l.023,4.862L.023,4.862Z" transform="translate(1.096 247.92)" fill="#cf9f94"/>
            <path id="Path_1043" data-name="Path 1043" d="M0,0,151.363.376l.023,4.862L.023,4.862Z" transform="translate(1.073 243.058)" fill="#d0a093"/>
            <path id="Path_1044" data-name="Path 1044" d="M0,0,151.363.376l.023,4.862L.023,4.862Z" transform="translate(1.05 238.196)" fill="#d1a192"/>
            <path id="Path_1045" data-name="Path 1045" d="M0,0,151.363.376l.023,4.862L.023,4.862Z" transform="translate(1.027 233.335)" fill="#d2a291"/>
            <path id="Path_1046" data-name="Path 1046" d="M0,0,151.363.376l.023,4.862L.023,4.862Z" transform="translate(1.003 228.473)" fill="#d3a390"/>
            <path id="Path_1047" data-name="Path 1047" d="M0,0,151.363.376l.023,4.862L.023,4.862Z" transform="translate(0.98 223.611)" fill="#d4a48f"/>
            <path id="Path_1048" data-name="Path 1048" d="M0,0,151.363.376l.023,4.862L.023,4.862Z" transform="translate(0.957 218.749)" fill="#d5a58e"/>
            <path id="Path_1049" data-name="Path 1049" d="M0,0,151.363.376l.023,4.862L.023,4.862Z" transform="translate(0.934 213.887)" fill="#d6a68e"/>
            <path id="Path_1050" data-name="Path 1050" d="M0,0,151.363.376l.023,4.862L.023,4.862Z" transform="translate(0.911 209.025)" fill="#d7a78d"/>
            <path id="Path_1051" data-name="Path 1051" d="M0,0,151.363.376l.023,4.862L.023,4.862Z" transform="translate(0.888 204.163)" fill="#d8a88c"/>
            <path id="Path_1052" data-name="Path 1052" d="M0,0,151.363.376l.023,4.862L.023,4.862Z" transform="translate(0.865 199.301)" fill="#d9a98b"/>
            <path id="Path_1053" data-name="Path 1053" d="M0,0,151.363.376l.023,4.862L.023,4.862Z" transform="translate(0.842 194.44)" fill="#daaa8a"/>
            <path id="Path_1054" data-name="Path 1054" d="M0,0,151.363.376l.023,4.862L.023,4.862Z" transform="translate(0.819 189.578)" fill="#daab89"/>
            <path id="Path_1055" data-name="Path 1055" d="M0,0,151.363.376l.023,4.862L.023,4.862Z" transform="translate(0.796 184.716)" fill="#dbac88"/>
            <path id="Path_1056" data-name="Path 1056" d="M0,0,151.363.376l.023,4.862L.023,4.862Z" transform="translate(0.773 179.854)" fill="#dcad87"/>
            <path id="Path_1057" data-name="Path 1057" d="M0,0,151.363.376l.023,4.862L.023,4.862Z" transform="translate(0.75 174.992)" fill="#ddae86"/>
            <path id="Path_1058" data-name="Path 1058" d="M0,0,151.363.376l.023,4.862L.023,4.862Z" transform="translate(0.727 170.13)" fill="#deaf85"/>
            <path id="Path_1059" data-name="Path 1059" d="M0,0,151.363.376l.023,4.862L.023,4.862Z" transform="translate(0.704 165.268)" fill="#dfb085"/>
            <path id="Path_1060" data-name="Path 1060" d="M0,0,151.363.376l.023,4.862L.023,4.862Z" transform="translate(0.681 160.406)" fill="#e0b184"/>
            <path id="Path_1061" data-name="Path 1061" d="M0,0,151.363.376l.023,4.862L.023,4.862Z" transform="translate(0.658 155.544)" fill="#e1b283"/>
            <path id="Path_1062" data-name="Path 1062" d="M0,0,151.363.376l.023,4.862L.023,4.862Z" transform="translate(0.635 150.683)" fill="#e2b382"/>
            <path id="Path_1063" data-name="Path 1063" d="M0,0,151.363.376l.023,4.862L.023,4.862Z" transform="translate(0.612 145.821)" fill="#e3b481"/>
            <path id="Path_1064" data-name="Path 1064" d="M0,0,151.363.376l.023,4.862L.023,4.862Z" transform="translate(0.589 140.959)" fill="#e4b580"/>
            <path id="Path_1065" data-name="Path 1065" d="M0,0,151.363.376l.023,4.862L.023,4.862Z" transform="translate(0.566 136.097)" fill="#e5b67f"/>
            <path id="Path_1066" data-name="Path 1066" d="M0,0,151.363.376l.023,4.862L.023,4.862Z" transform="translate(0.543 131.235)" fill="#e6b77e"/>
            <path id="Path_1067" data-name="Path 1067" d="M0,0,151.363.376l.023,4.862L.023,4.862Z" transform="translate(0.52 126.373)" fill="#e7b87d"/>
            <path id="Path_1068" data-name="Path 1068" d="M0,0,151.363.376l.023,4.862L.023,4.862Z" transform="translate(0.497 121.511)" fill="#e8b97c"/>
            <path id="Path_1069" data-name="Path 1069" d="M0,0,151.363.376l.023,4.862L.023,4.862Z" transform="translate(0.474 116.649)" fill="#e9ba7c"/>
            <path id="Path_1070" data-name="Path 1070" d="M0,0,151.363.376l.023,4.862L.023,4.862Z" transform="translate(0.451 111.788)" fill="#e9bb7b"/>
            <path id="Path_1071" data-name="Path 1071" d="M0,0,151.363.376l.023,4.862L.023,4.862Z" transform="translate(0.428 106.926)" fill="#eabc7a"/>
            <path id="Path_1072" data-name="Path 1072" d="M0,0,151.363.376l.023,4.862L.023,4.862Z" transform="translate(0.405 102.064)" fill="#ebbd79"/>
            <path id="Path_1073" data-name="Path 1073" d="M0,0,151.363.376l.023,4.862L.023,4.862Z" transform="translate(0.382 97.202)" fill="#ecbe78"/>
            <path id="Path_1074" data-name="Path 1074" d="M0,0,151.363.376l.023,4.862L.023,4.862Z" transform="translate(0.359 92.34)" fill="#edbf77"/>
            <path id="Path_1075" data-name="Path 1075" d="M0,0,151.363.376l.023,4.862L.023,4.862Z" transform="translate(0.336 87.478)" fill="#eec076"/>
            <path id="Path_1076" data-name="Path 1076" d="M0,0,151.363.376l.023,4.862L.023,4.862Z" transform="translate(0.313 82.616)" fill="#efc175"/>
            <path id="Path_1077" data-name="Path 1077" d="M0,0,151.363.376l.023,4.862L.023,4.862Z" transform="translate(0.29 77.754)" fill="#f0c274"/>
            <path id="Path_1078" data-name="Path 1078" d="M0,0,151.363.376l.023,4.862L.023,4.862Z" transform="translate(0.266 72.893)" fill="#f1c373"/>
            <path id="Path_1079" data-name="Path 1079" d="M0,0,151.363.376l.023,4.862L.023,4.862Z" transform="translate(0.243 68.031)" fill="#f2c473"/>
            <path id="Path_1080" data-name="Path 1080" d="M0,0,151.363.376l.023,4.862L.023,4.862Z" transform="translate(0.22 63.169)" fill="#f3c572"/>
            <path id="Path_1081" data-name="Path 1081" d="M0,0,151.363.376l.023,4.862L.023,4.862Z" transform="translate(0.197 58.307)" fill="#f4c671"/>
            <path id="Path_1082" data-name="Path 1082" d="M0,0,151.363.376l.023,4.862L.023,4.862Z" transform="translate(0.174 53.445)" fill="#f5c770"/>
            <path id="Path_1083" data-name="Path 1083" d="M0,0,151.363.376l.023,4.862L.023,4.862Z" transform="translate(0.151 48.583)" fill="#f6c86f"/>
            <path id="Path_1084" data-name="Path 1084" d="M0,0,151.363.376l.023,4.862L.023,4.862Z" transform="translate(0.128 43.721)" fill="#f7c96e"/>
            <path id="Path_1085" data-name="Path 1085" d="M0,0,151.363.376l.023,4.862L.023,4.862Z" transform="translate(0.105 38.859)" fill="#f8ca6d"/>
            <path id="Path_1086" data-name="Path 1086" d="M0,0,151.363.376l.023,4.862L.023,4.862Z" transform="translate(0.082 33.998)" fill="#f8cb6c"/>
            <path id="Path_1087" data-name="Path 1087" d="M0,0,151.363.376l.023,4.862L.023,4.862Z" transform="translate(0.059 29.136)" fill="#f9cc6b"/>
            <path id="Path_1088" data-name="Path 1088" d="M0,0,151.363.376l.023,4.862L.023,4.862Z" transform="translate(0.036 24.274)" fill="#facd6a"/>
            <path id="Path_1089" data-name="Path 1089" d="M0,0,151.363.376l.023,4.862L.023,4.862Z" transform="translate(0.013 19.412)" fill="#fbce6a"/>
            <path id="Path_1090" data-name="Path 1090" d="M0,0,151.363.376l.023,4.862L.023,4.862Z" transform="translate(-0.01 14.55)" fill="#fccf69"/>
            <path id="Path_1091" data-name="Path 1091" d="M0,0,151.363.376l.023,4.862L.023,4.862Z" transform="translate(-0.033 9.688)" fill="#fdd068"/>
            <path id="Path_1092" data-name="Path 1092" d="M0,0,151.363.376l.023,4.862L.023,4.862Z" transform="translate(-0.056 4.826)" fill="#fed167"/>
            <path id="Path_1093" data-name="Path 1093" d="M0,0,151.363.376l.023,4.862L.023,4.862Z" transform="translate(-0.079 -0.036)" fill="#ffd266"/>
            <path id="Path_196" data-name="Path 196" d="M151.364.376,0,0Z" transform="translate(-0.079 -0.037)" fill="#ffd266"/>
          </g>
        </g>
      </g>
    </g>
  </g>
</svg>
